<?xml version="1.0" encoding="utf-8"?>
<!-- Generator: Adobe Illustrator 21.0.2, SVG Export Plug-In . SVG Version: 6.00 Build 0)  -->
<svg version="1.1" xmlns="http://www.w3.org/2000/svg" xmlns:xlink="http://www.w3.org/1999/xlink" x="0px" y="0px"
	 viewBox="0 0 160 160" style="enable-background:new 0 0 160 160;" xml:space="preserve">
<style type="text/css">
	.st0{display:none;}
	.st1{display:inline;fill:none;stroke:#000000;stroke-width:14;stroke-miterlimit:10;}
	.st2{display:inline;stroke:#000000;stroke-width:14;stroke-miterlimit:10;}
	.st3{display:none;fill:none;stroke:#000000;stroke-width:12;stroke-miterlimit:10;}
	.st4{fill:none;stroke:#000000;stroke-width:12;stroke-miterlimit:10;}
	.st5{display:inline;fill:none;stroke:#000000;stroke-width:12;stroke-miterlimit:10;}
</style>
<g id="Layer_1">
	<g id="Layer_1_1_" class="st0">
		<circle class="st1" cx="80" cy="80" r="71.5"/>
	</g>
	<g id="Layer_2" class="st0">
		<line class="st1" x1="80" y1="66.7" x2="80" y2="119.8"/>
		<circle class="st2" cx="79.8" cy="49.4" r="1.7"/>
	</g>
	<path class="st3" d="M66.7,115.1L47.4,98.7C66,67,64.2,110.3,84.5,85.3s-22.9-15.6,8.1-37.5l16.8,17.1c5,4.3,5.1,20.9-6.6,35.2
		S71.7,119.4,66.7,115.1z"/>
	<line class="st4" x1="5" y1="155" x2="151.6" y2="8.4"/>
	<line class="st4" x1="70.3" y1="29.4" x2="148.7" y2="10.3"/>
	<line class="st4" x1="132.1" y1="90.5" x2="149.6" y2="11.8"/>
</g>
<g id="Layer_2_1_" class="st0">
	<rect x="59.9" y="72.5" class="st5" width="41.8" height="41.8"/>
	<polygon class="st5" points="80.5,40.8 54.6,72.7 106.4,72.7 	"/>
</g>
</svg>
